<?xml version="1.0" encoding="UTF-8"?>
<svg version="1.1" xmlns="http://www.w3.org/2000/svg" width="1280" height="1280">
<path d="M0 0 C422.4 0 844.8 0 1280 0 C1280 422.4 1280 844.8 1280 1280 C857.6 1280 435.2 1280 0 1280 C0 857.6 0 435.2 0 0 Z " fill="#000000" transform="translate(0,0)"/>
<path d="M0 0 C-2.99577338 2.99577338 -6.45440922 2.50479041 -10.4921875 2.7109375 C-11.36964127 2.76384949 -12.24709503 2.81676147 -13.15113831 2.87127686 C-15.05853889 2.98607628 -16.96617341 3.09703753 -18.87399292 3.20465088 C-23.96821094 3.49381899 -29.06028695 3.81586618 -34.15234375 4.140625 C-35.73122124 4.24100571 -35.73122124 4.24100571 -37.34199524 4.34341431 C-48.72398335 5.08420935 -60.08015345 6.07792312 -71.4375 7.125 C-72.85829865 7.25439972 -72.85829865 7.25439972 -74.30780029 7.38641357 C-76.99588023 7.63194609 -79.68356454 7.88132947 -82.37109375 8.1328125 C-83.15980362 8.20562439 -83.94851349 8.27843628 -84.76112366 8.35345459 C-88.87904961 8.74710408 -92.92056778 9.30027636 -97 10 C-98.57076565 10.16515663 -100.14396433 10.30872665 -101.71875 10.4296875 C-102.63140625 10.50123047 -103.5440625 10.57277344 -104.484375 10.64648438 C-105.47953125 10.72189453 -106.4746875 10.79730469 -107.5 10.875 C-109.73958479 11.04946041 -111.97916802 11.22394092 -114.21875 11.3984375 C-115.45109375 11.49350586 -116.6834375 11.58857422 -117.953125 11.68652344 C-124.8129029 12.21651245 -131.67145089 12.76224371 -138.53024292 13.30480957 C-141.00198273 13.5001567 -143.47376276 13.69498676 -145.94555664 13.88964844 C-153.11910678 14.45475189 -160.2924728 15.0216394 -167.46484375 15.6015625 C-168.56473633 15.69042725 -169.66462891 15.77929199 -170.79785156 15.87084961 C-172.85845339 16.0376526 -174.91900226 16.20511138 -176.97949219 16.37329102 C-181.02261937 16.69969288 -185.06286871 17.01756954 -189.11328125 17.23828125 C-197.01683809 17.67123657 -204.73827991 18.58218304 -212.54003906 19.89624023 C-219.35192717 20.97090485 -226.13394035 21.29111576 -233.01278687 21.59599304 C-242.47630858 22.03262259 -251.88539916 22.89344348 -261.3125 23.8125 C-262.21265839 23.89859528 -263.11281677 23.98469055 -264.04025269 24.07339478 C-277.27129696 25.34168606 -290.45621179 26.82214929 -303.61645508 28.69262695 C-309.75687319 29.54640072 -315.84790962 30.15189283 -322.0390625 30.4609375 C-331.26622572 30.92750465 -340.39997742 31.97932098 -349.56762695 33.10180664 C-352.3262891 33.43918638 -355.08587431 33.76801768 -357.84570312 34.09570312 C-372.86160079 35.03735899 -372.86160079 35.03735899 -387 39 C-389.67474478 39.33215906 -392.3419024 39.62248881 -395.0234375 39.88671875 C-404.28822066 40.85992293 -413.44336244 42.25120761 -422.625 43.8125 C-423.4013681 43.9428363 -424.17773621 44.07317261 -424.97763062 44.2074585 C-435.58228094 45.98987337 -446.12678309 47.95456754 -456.63647461 50.23876953 C-464.58701749 51.95927903 -472.57561237 53.36580158 -480.60668945 54.65673828 C-485.02300971 55.38598063 -488.86264326 56.25389521 -493 58 C-495.38630646 58.50559695 -497.78404139 58.95849851 -500.1875 59.375 C-505.91274974 60.39173909 -511.59984028 61.52362745 -517.2734375 62.796875 C-518.04136124 62.96857208 -518.80928497 63.14026917 -519.60047913 63.31716919 C-528.02962457 65.21398286 -536.43495424 67.20795813 -544.83129883 69.24462891 C-546.5662592 69.66426991 -548.30193933 70.0809464 -550.03833008 70.49462891 C-561.14368045 73.14069922 -572.04773984 76.13382251 -582.90136719 79.6784668 C-586.5140318 80.85780588 -590.14988841 81.92225794 -593.8125 82.9375 C-600.04055956 84.68753326 -606.20873498 86.60627395 -612.375 88.5625 C-613.76682495 89.00227173 -613.76682495 89.00227173 -615.18676758 89.45092773 C-623.99826251 92.26327576 -632.55069947 95.59635067 -641.14453125 99.01171875 C-644 100 -644 100 -647 100 C-647 100.66 -647 101.32 -647 102 C-648.01707031 102.34611328 -648.01707031 102.34611328 -649.0546875 102.69921875 C-655.65598619 105.01241621 -661.82938777 107.71410123 -668 111 C-668.87398437 111.4640625 -669.74796875 111.928125 -670.6484375 112.40625 C-673.44620349 113.91335603 -676.22296188 115.45508181 -679 117 C-679.9590625 117.51175781 -680.918125 118.02351562 -681.90625 118.55078125 C-693.05211297 124.69567149 -704.68961998 133.40405592 -712 144 C-713.10979166 147.33693445 -713.10979166 147.33693445 -713 150 C-713.66 150 -714.32 150 -715 150 C-715.98356688 154.1661654 -716.23067996 158.16132615 -716.3125 162.4375 C-716.34988281 163.71496094 -716.38726563 164.99242187 -716.42578125 166.30859375 C-715.93405615 170.57171503 -714.55648232 172.61788331 -712 176 C-711.7834375 177.0209375 -711.7834375 177.0209375 -711.5625 178.0625 C-710.65208086 181.19838815 -708.35399571 182.80293733 -706 185 C-704.95708036 186.08212715 -703.91542154 187.16547081 -702.875 188.25 C-700.24818368 191.15462319 -700.24818368 191.15462319 -697 192 C-696.38769531 192.77085937 -695.77539062 193.54171875 -695.14453125 194.3359375 C-692.86637905 197.16599178 -690.76302999 198.71965044 -687.6875 200.625 C-686.78386719 201.19476562 -685.88023437 201.76453125 -684.94921875 202.3515625 C-681.71593551 204.15877512 -678.4109381 205.55907565 -675 207 C-672.82706238 208.11283941 -670.66048486 209.23817344 -668.5 210.375 C-662.30011174 213.56611896 -656.03512276 215.82114778 -649.375 217.859375 C-646 219 -646 219 -642.9921875 220.53515625 C-639.71953367 222.13730401 -636.68236978 222.92520648 -633.125 223.6875 C-631.39636719 224.06455078 -631.39636719 224.06455078 -629.6328125 224.44921875 C-628.76398438 224.63097656 -627.89515625 224.81273437 -627 225 C-627 225.66 -627 226.32 -627 227 C-626.38898438 227.07476563 -625.77796875 227.14953125 -625.1484375 227.2265625 C-617.91215071 228.26614173 -611.03083977 230.02235401 -604 232 C-597.31620998 233.87779486 -590.7816819 235.53544197 -583.8984375 236.51171875 C-580.29435115 237.11887615 -576.78405098 238.01873119 -573.25 238.9375 C-562.42182386 241.73721995 -551.45947566 243.63286239 -540.421875 245.4140625 C-537.83916021 245.85630818 -535.27359668 246.33098361 -532.703125 246.8359375 C-518.63101642 249.562146 -504.49279769 251.46832322 -490.27587891 253.24926758 C-483.25120363 254.13510945 -476.31664591 255.06087231 -469.38964844 256.54882812 C-464.30658314 257.50852415 -459.14360754 257.9250107 -454 258.4375 C-451.49468726 258.69560318 -448.98948085 258.95474024 -446.484375 259.21484375 C-445.22818359 259.34487793 -443.97199219 259.47491211 -442.67773438 259.60888672 C-438.24198577 260.08061198 -433.81290162 260.5992928 -429.38354492 261.12719727 C-403.27146761 264.23379189 -377.14308302 266.36433491 -350.90307617 267.99804688 C-349.48742119 268.08758133 -349.48742119 268.08758133 -348.04316711 268.17892456 C-346.27013702 268.29069909 -344.49693931 268.39985826 -342.72355652 268.50588989 C-338.41533089 268.77798835 -334.25741324 269.25804878 -330 270 C-327.9501112 270.18168861 -325.89759286 270.33528927 -323.84375 270.46484375 C-322.65394531 270.54283203 -321.46414063 270.62082031 -320.23828125 270.70117188 C-319.00464844 270.77916016 -317.77101563 270.85714844 -316.5 270.9375 C-308.93211252 271.41621675 -301.38324815 271.95043243 -293.83613586 272.68325806 C-278.89091358 274.12422195 -263.91715987 274.97324875 -248.9284668 275.80493164 C-245.8741922 275.97450605 -242.82018306 276.1479641 -239.76635742 276.32543945 C-221.45786065 277.38939242 -203.16395302 278.24639492 -184.82795715 278.6552887 C-162.23220435 279.17611558 -162.23220435 279.17611558 -154 281 C-154 282.32 -154 283.64 -154 285 C-154.99 285 -155.98 285 -157 285 C-157 285.66 -157 286.32 -157 287 C-175.4237762 287.02365434 -193.84754831 287.04113523 -212.27133656 287.05181217 C-220.83120556 287.05690758 -229.39106487 287.06384814 -237.95092773 287.07543945 C-313.68489871 287.17569371 -313.68489871 287.17569371 -347 286 C-347.76172138 285.97331112 -348.52344276 285.94662224 -349.30824661 285.9191246 C-359.68063467 285.55197567 -370.04985986 285.12212199 -380.41843033 284.66046143 C-383.46137533 284.52536883 -386.50442781 284.39277468 -389.54747486 284.26000404 C-396.3308197 283.96390532 -403.11396493 283.66357946 -409.89697266 283.35986328 C-415.88137035 283.0920278 -421.86617 282.83553943 -427.85137939 282.58651733 C-443.71178949 281.92343557 -459.4846728 281.20268521 -475.24267578 279.17797852 C-484.70378812 277.96857778 -494.18107994 277.1852386 -503.6875 276.4375 C-505.31111891 276.30854224 -506.93473546 276.17955483 -508.55834961 276.05053711 C-514.12191475 275.61035098 -519.68575511 275.17414189 -525.25097656 274.75537109 C-549.36256889 272.93885868 -573.50330039 269.93852762 -597.38696289 266.16210938 C-602.76705376 265.3152378 -608.1563513 264.56692197 -613.5546875 263.84765625 C-642.53292658 259.97213103 -642.53292658 259.97213103 -655.125 256.90234375 C-659.43866394 255.89785144 -663.75405647 255.1402864 -668.125 254.4375 C-668.86830566 254.31745605 -669.61161133 254.19741211 -670.37744141 254.07373047 C-671.85480043 253.83534213 -673.33217662 253.59706009 -674.80957031 253.35888672 C-691.31514847 250.65456217 -691.31514847 250.65456217 -697.8125 248.5 C-702.36630636 247.02737605 -706.90326195 246.36154873 -711.625 245.6875 C-723.29187602 244.00977806 -734.61743204 241.0118722 -746 238 C-746.03738281 236.69804688 -746.07476563 235.39609375 -746.11328125 234.0546875 C-746.17896674 232.32809743 -746.24541318 230.60153619 -746.3125 228.875 C-746.33505859 228.0190625 -746.35761719 227.163125 -746.38085938 226.28125 C-746.65025283 219.91376836 -747.55972189 215.25256441 -752.4375 210.75 C-754.84100001 209.00105919 -754.84100001 209.00105919 -757.0625 208.0625 C-759 207 -759 207 -760.75 204.6875 C-763.32148378 201.61600549 -765.93024025 200.05185446 -769.390625 198.11328125 C-769.92171875 197.74589844 -770.4528125 197.37851562 -771 197 C-771 196.34 -771 195.68 -771 195 C-780.57 195 -790.14 195 -800 195 C-800 195.66 -800 196.32 -800 197 C-801.03125 197.37125 -802.0625 197.7425 -803.125 198.125 C-807.39122426 199.91629497 -809.8319224 202.68456996 -813 206 C-813.66 206 -814.32 206 -815 206 C-815 206.66 -815 207.32 -815 208 C-819.41452154 209.05948517 -821.34615829 209.3447529 -825.4375 207.1875 C-826.283125 206.465625 -827.12875 205.74375 -828 205 C-828 204.34 -828 203.68 -828 203 C-828.82951172 202.87238281 -828.82951172 202.87238281 -829.67578125 202.7421875 C-839.50090646 199.60475256 -847.87775778 188.45335043 -853.22265625 180.0859375 C-856.54615998 173.06793428 -856.16606414 162.64449274 -854.30859375 155.24609375 C-853.37360475 152.99664322 -852.32275669 151.04388573 -851 149 C-850.36384766 148.01 -850.36384766 148.01 -849.71484375 147 C-838.97524788 131.68336187 -823.28978223 121.50872577 -807 113 C-806.31437988 112.64131836 -805.62875977 112.28263672 -804.92236328 111.91308594 C-797.34626425 107.97971939 -789.71973817 104.33899591 -781.796875 101.1484375 C-778.15970819 99.65496398 -774.61022644 97.9940155 -771.05859375 96.30859375 C-766.4457156 94.33501242 -761.72594016 92.68146159 -757 91 C-755.39088745 90.42511841 -755.39088745 90.42511841 -753.74926758 89.83862305 C-738.70265207 84.49258794 -723.68169329 79.61359653 -708.21972656 75.59521484 C-705.24249927 74.79687783 -702.31022433 73.87751488 -699.375 72.9375 C-691.65066976 70.50408354 -683.78434231 68.63861137 -675.92041016 66.71875 C-673.08920555 66.02195462 -670.26112546 65.3132819 -667.43348694 64.60217285 C-613.93058194 51.15795452 -613.93058194 51.15795452 -590.453125 48.4921875 C-586.70600628 47.95809592 -583.37595894 46.98088795 -579.80078125 45.78515625 C-575.25621568 44.5111567 -570.61372951 43.86394199 -565.95678711 43.12744141 C-559.90165309 42.16710606 -553.91715292 41.01473843 -547.91796875 39.74609375 C-543.5085175 38.90640762 -539.08608558 38.23935061 -534.64819336 37.5690918 C-530.84523129 36.9758572 -527.05309489 36.33019029 -523.26171875 35.66796875 C-502.74455945 32.10624788 -482.20384109 29.26447492 -461.52737427 26.80123901 C-455.80131086 26.11301061 -450.09459073 25.31986164 -444.38769531 24.48681641 C-438.28812705 23.61030018 -432.17624008 22.83298512 -426.0625 22.0625 C-425.38810883 21.97729095 -424.71371765 21.89208191 -424.01889038 21.80429077 C-411.97897061 20.2907461 -399.92263868 19.04933243 -387.83813477 17.95141602 C-386.00980103 17.78403931 -386.00980103 17.78403931 -384.14453125 17.61328125 C-382.54121948 17.47079956 -382.54121948 17.47079956 -380.90551758 17.32543945 C-378.05187086 17.04840934 -378.05187086 17.04840934 -375.47949219 16.49291992 C-372.70769057 15.94188925 -370.00198414 15.70432703 -367.18359375 15.5 C-366.08982422 15.4175 -364.99605469 15.335 -363.86914062 15.25 C-361.57749456 15.08305026 -359.28582779 14.91638455 -356.99414062 14.75 C-355.35541992 14.62625 -355.35541992 14.62625 -353.68359375 14.5 C-352.19170532 14.39171875 -352.19170532 14.39171875 -350.66967773 14.28125 C-348.13040805 14.08757351 -348.13040805 14.08757351 -346.25080872 13.51622009 C-343.2757253 12.83388853 -340.36320269 12.66410906 -337.31738281 12.45922852 C-336.65309265 12.41352722 -335.98880249 12.36782593 -335.30438232 12.32073975 C-333.10417452 12.17015103 -330.90366216 12.0245959 -328.703125 11.87890625 C-327.15205431 11.77339177 -325.60100894 11.66750435 -324.04998779 11.56126404 C-319.94946195 11.28115656 -315.84867734 11.00505163 -311.74780273 10.73010254 C-305.27469296 10.29575694 -298.80187531 9.85710238 -292.32923317 9.41584587 C-290.74050389 9.30756872 -289.15175736 9.19954432 -287.562994 9.09176826 C-278.22234267 8.45693279 -268.89262775 7.76147059 -259.56640625 6.9375 C-245.62879848 5.7181193 -231.66060221 5.09988577 -217.6875 4.4375 C-213.75339692 4.24896316 -209.81936546 4.05917423 -205.88545227 3.86671448 C-203.46580014 3.74851764 -201.04603614 3.63257933 -198.62614441 3.51939392 C-193.59579815 3.27524294 -188.58927303 2.98491157 -183.5769043 2.49072266 C-176.93848411 1.85667693 -170.29649377 1.66162798 -163.6328125 1.46484375 C-162.93463976 1.44365416 -162.23646702 1.42246456 -161.51713753 1.40063286 C-156.05338024 1.2352274 -150.58927221 1.08476332 -145.125 0.9375 C-144.312197 0.91513527 -143.499394 0.89277054 -142.6619606 0.86972809 C-95.11678 -0.43421532 -47.5583059 -0.1930071 0 0 Z " fill="#FAFAFA" transform="translate(1093,514)"/>
<path d="M0 0 C2.70860665 -0.05429278 5.41610901 -0.09381211 8.125 -0.125 C9.26582031 -0.15013672 9.26582031 -0.15013672 10.4296875 -0.17578125 C15.03270731 -0.21546246 18.66464004 0.24092423 23 2 C22 4 22 4 19 6 C19.99 6.66 20.98 7.32 22 8 C-11 8 -44 8 -78 8 C-78 7.67 -78 7.34 -78 7 C-51.6 7 -25.2 7 2 7 C2 6.34 2 5.68 2 5 C2.99 5 3.98 5 5 5 C5 3.68 5 2.36 5 1 C3.35 1 1.7 1 0 1 C0 0.67 0 0.34 0 0 Z " fill="#474747" transform="translate(934,794)"/>
<path d="M0 0 C24.63687151 -0.28796343 24.63687151 -0.28796343 35 2 C35 3.32 35 4.64 35 6 C34.01 6 33.02 6 32 6 C32 6.66 32 7.32 32 8 C25.07 8 18.14 8 11 8 C11 7.34 11 6.68 11 6 C13.31 6 15.62 6 18 6 C18 5.01 18 4.02 18 3 C17.34 3.66 16.68 4.32 16 5 C13.875 4.625 13.875 4.625 12 4 C12.66 3.67 13.32 3.34 14 3 C11.29816945 1.64908472 8.88191794 1.66141942 5.875 1.4375 C4.23144531 1.31181641 4.23144531 1.31181641 2.5546875 1.18359375 C1.71164062 1.12300781 0.86859375 1.06242188 0 1 C0 0.67 0 0.34 0 0 Z " fill="#B9B9B9" transform="translate(904,793)"/>
<path d="M0 0 C0.79481277 0.00141495 1.58962555 0.0028299 2.40852356 0.00428772 C4.9455645 0.00988247 7.482517 0.02243397 10.01953125 0.03515625 C11.7402331 0.04017193 13.46093633 0.04473472 15.18164062 0.04882812 C19.39847155 0.05985018 23.61523641 0.07711119 27.83203125 0.09765625 C27.83203125 0.42765625 27.83203125 0.75765625 27.83203125 1.09765625 C23.06392034 1.5518527 18.29509387 1.99716764 13.52539062 2.43432617 C11.90341928 2.58423859 10.28166885 2.73656181 8.66015625 2.89135742 C6.32736445 3.11363017 3.9939117 3.32717819 1.66015625 3.5390625 C0.57556122 3.64523643 0.57556122 3.64523643 -0.53094482 3.7535553 C-7.19920714 4.34293288 -7.19920714 4.34293288 -10.16796875 3.09765625 C-10.49796875 2.43765625 -10.82796875 1.77765625 -11.16796875 1.09765625 C-7.40948701 -0.155171 -3.91305956 -0.0261621 0 0 Z " fill="#F4F4F4" transform="translate(1052.16796875,514.90234375)"/>
<path d="M0 0 C5.52677733 -0.19392201 9.75614911 0.2520497 15 2 C14.01 2.495 14.01 2.495 13 3 C13 3.66 13 4.32 13 5 C12.01 5 11.02 5 10 5 C10 5.66 10 6.32 10 7 C7.36 7 4.72 7 2 7 C2 6.34 2 5.68 2 5 C2.99 5 3.98 5 5 5 C5 3.68 5 2.36 5 1 C3.35 1 1.7 1 0 1 C0 0.67 0 0.34 0 0 Z " fill="#5F5F5F" transform="translate(934,794)"/>
<path d="M0 0 C4.51617599 -0.07654536 8.59085217 -0.10228696 13 1 C13 2.32 13 3.64 13 5 C12.01 5 11.02 5 10 5 C10 5.66 10 6.32 10 7 C7.36 7 4.72 7 2 7 C2 5 2 5 4 2.875 C4.66 2.25625 5.32 1.6375 6 1 C4.02 1 2.04 1 0 1 C0 0.67 0 0.34 0 0 Z " fill="#969696" transform="translate(926,794)"/>
<path d="M0 0 C1.06412109 0.00193359 2.12824219 0.00386719 3.22460938 0.00585938 C4.33513672 0.01810547 5.44566406 0.03035156 6.58984375 0.04296875 C7.70423828 0.04361328 8.81863281 0.04425781 9.96679688 0.04492188 C18.24663023 0.09011199 18.24663023 0.09011199 20.52734375 1.23046875 C20.52734375 1.89046875 20.52734375 2.55046875 20.52734375 3.23046875 C21.84734375 3.89046875 23.16734375 4.55046875 24.52734375 5.23046875 C23.20734375 5.56046875 21.88734375 5.89046875 20.52734375 6.23046875 C20.52734375 5.57046875 20.52734375 4.91046875 20.52734375 4.23046875 C19.32078125 4.01390625 19.32078125 4.01390625 18.08984375 3.79296875 C15.52734375 3.23046875 15.52734375 3.23046875 14.52734375 2.23046875 C12.81962017 2.14333044 11.10835726 2.12346868 9.3984375 2.1328125 C8.36396484 2.13603516 7.32949219 2.13925781 6.26367188 2.14257812 C5.17505859 2.15095703 4.08644531 2.15933594 2.96484375 2.16796875 C1.87236328 2.17248047 0.77988281 2.17699219 -0.34570312 2.18164062 C-3.0547412 2.19347049 -5.76367224 2.20995332 -8.47265625 2.23046875 C-5.09814688 -0.01920416 -3.94756882 -0.01660147 0 0 Z " fill="#929292" transform="translate(301.47265625,707.76953125)"/>
<path d="M0 0 C2.62506802 -0.02690844 5.24986173 -0.04679404 7.875 -0.0625 C8.62136719 -0.07087891 9.36773438 -0.07925781 10.13671875 -0.08789062 C15.7734375 -0.11328125 15.7734375 -0.11328125 18 1 C17.34 2.32 16.68 3.64 16 5 C14.68 4.67 13.36 4.34 12 4 C12.66 3.67 13.32 3.34 14 3 C11.29816945 1.64908472 8.88191794 1.66141942 5.875 1.4375 C4.23144531 1.31181641 4.23144531 1.31181641 2.5546875 1.18359375 C1.71164062 1.12300781 0.86859375 1.06242188 0 1 C0 0.67 0 0.34 0 0 Z " fill="#B1B1B1" transform="translate(904,793)"/>
<path d="M0 0 C0.66 1.32 1.32 2.64 2 4 C1.34 4 0.68 4 0 4 C0 4.66 0 5.32 0 6 C-2.97 6 -5.94 6 -9 6 C-9 5.34 -9 4.68 -9 4 C-6.69 4 -4.38 4 -2 4 C-1.34 2.68 -0.68 1.36 0 0 Z " fill="#CFCFCF" transform="translate(924,795)"/>
<path d="M0 0 C0.33 0.99 0.66 1.98 1 3 C-1.31 5.31 -3.62 7.62 -6 10 C-6.99 9.67 -7.98 9.34 -9 9 C-6.03 6.03 -3.06 3.06 0 0 Z " fill="#3D3D3D" transform="translate(393,644)"/>
<path d="M0 0 C1.32 0.66 2.64 1.32 4 2 C3.34 3.32 2.68 4.64 2 6 C0.02 6 -1.96 6 -4 6 C-4 5.34 -4 4.68 -4 4 C-3.01 4 -2.02 4 -1 4 C-0.67 2.68 -0.34 1.36 0 0 Z " fill="#333333" transform="translate(948,795)"/>
<path d="M0 0 C-3.65172633 2.26849666 -7.0127118 2.3895951 -11.25 2.625 C-12.51328125 2.69976563 -13.7765625 2.77453125 -15.078125 2.8515625 C-16.04234375 2.90054688 -17.0065625 2.94953125 -18 3 C-14.93344745 0.95563163 -13.12890332 0.45609789 -9.5625 -0.1875 C-8.61503906 -0.36667969 -7.66757812 -0.54585937 -6.69140625 -0.73046875 C-4.10788261 -0.98919608 -2.43945237 -0.81315079 0 0 Z " fill="#5A5A5A" transform="translate(620,568)"/>
<path d="M0 0 C1.65 0.33 3.3 0.66 5 1 C4.01 1.495 4.01 1.495 3 2 C3 2.66 3 3.32 3 4 C2.01 4 1.02 4 0 4 C0 4.66 0 5.32 0 6 C-1.32 6 -2.64 6 -4 6 C-4 5.34 -4 4.68 -4 4 C-2.68662604 2.9739266 -1.35335895 1.97272675 0 1 C0 0.67 0 0.34 0 0 Z " fill="#4A4A4A" transform="translate(944,795)"/>
<path d="M0 0 C0.66 0.33 1.32 0.66 2 1 C0.73965413 2.50882261 -0.53363649 4.00684044 -1.8125 5.5 C-2.52019531 6.3353125 -3.22789062 7.170625 -3.95703125 8.03125 C-6 10 -6 10 -9 10 C-9 9.34 -9 8.68 -9 8 C-7.28515625 6.30859375 -7.28515625 6.30859375 -5.0625 4.4375 C-3.96615234 3.50744141 -3.96615234 3.50744141 -2.84765625 2.55859375 C-2.23792969 2.04425781 -1.62820313 1.52992188 -1 1 C-0.67 0.67 -0.34 0.34 0 0 Z " fill="#6A6A6A" transform="translate(287,712)"/>
<path d="M0 0 C0.53625 0.226875 1.0725 0.45375 1.625 0.6875 C0.305 2.0075 -1.015 3.3275 -2.375 4.6875 C-2.375 4.0275 -2.375 3.3675 -2.375 2.6875 C-4.685 3.3475 -6.995 4.0075 -9.375 4.6875 C-7.60317726 1.14385451 -3.87334298 -0.50965039 0 0 Z " fill="#4A4A4A" transform="translate(430.375,622.3125)"/>
<path d="M0 0 C0.99 0 1.98 0 3 0 C3 1.32 3 2.64 3 4 C2.01 4 1.02 4 0 4 C0 4.66 0 5.32 0 6 C-1.32 5.67 -2.64 5.34 -4 5 C-3.01 4.34 -2.02 3.68 -1 3 C-0.67 2.01 -0.34 1.02 0 0 Z " fill="#828282" transform="translate(936,795)"/>
<path d="M0 0 C1.48199902 0.44909061 2.96055236 0.90956564 4.4375 1.375 C5.26121094 1.63023437 6.08492188 1.88546875 6.93359375 2.1484375 C9 3 9 3 10 5 C8.68 5 7.36 5 6 5 C6 4.34 6 3.68 6 3 C5.195625 2.87625 4.39125 2.7525 3.5625 2.625 C2.716875 2.41875 1.87125 2.2125 1 2 C0.67 1.34 0.34 0.68 0 0 Z " fill="#4C4C4C" transform="translate(316,709)"/>
</svg>
